%TF.GenerationSoftware,KiCad,Pcbnew,(5.1.7)-1*%
%TF.CreationDate,2021-02-13T22:19:47+01:00*%
%TF.ProjectId,breakout_longlcd,62726561-6b6f-4757-945f-6c6f6e676c63,rev?*%
%TF.SameCoordinates,Original*%
%TF.FileFunction,Copper,L2,Bot*%
%TF.FilePolarity,Positive*%
%FSLAX46Y46*%
G04 Gerber Fmt 4.6, Leading zero omitted, Abs format (unit mm)*
G04 Created by KiCad (PCBNEW (5.1.7)-1) date 2021-02-13 22:19:47*
%MOMM*%
%LPD*%
G01*
G04 APERTURE LIST*
%TA.AperFunction,ComponentPad*%
%ADD10O,1.700000X1.700000*%
%TD*%
%TA.AperFunction,ComponentPad*%
%ADD11C,1.700000*%
%TD*%
%TA.AperFunction,ComponentPad*%
%ADD12R,1.700000X1.700000*%
%TD*%
%TA.AperFunction,ViaPad*%
%ADD13C,0.800000*%
%TD*%
%TA.AperFunction,Conductor*%
%ADD14C,0.254000*%
%TD*%
%TA.AperFunction,Conductor*%
%ADD15C,0.100000*%
%TD*%
G04 APERTURE END LIST*
D10*
%TO.P,J3,11*%
%TO.N,Net-(J1-Pad22)*%
X147017740Y-105613200D03*
%TO.P,J3,10*%
%TO.N,Net-(J1-Pad21)*%
X147017740Y-103073200D03*
%TO.P,J3,9*%
%TO.N,Net-(J1-Pad20)*%
X147017740Y-100533200D03*
%TO.P,J3,8*%
%TO.N,Net-(J1-Pad19)*%
X147017740Y-97993200D03*
%TO.P,J3,7*%
%TO.N,Net-(J1-Pad18)*%
X147017740Y-95453200D03*
%TO.P,J3,6*%
%TO.N,Net-(J1-Pad17)*%
X147017740Y-92913200D03*
%TO.P,J3,5*%
%TO.N,Net-(J1-Pad16)*%
X147017740Y-90373200D03*
%TO.P,J3,4*%
%TO.N,Net-(J1-Pad15)*%
X147017740Y-87833200D03*
%TO.P,J3,3*%
%TO.N,Net-(J1-Pad14)*%
X147017740Y-85293200D03*
%TO.P,J3,2*%
%TO.N,Net-(J1-Pad13)*%
X147017740Y-82753200D03*
D11*
%TO.P,J3,1*%
%TO.N,Net-(J1-Pad12)*%
X147017740Y-80213200D03*
%TD*%
D10*
%TO.P,J2,11*%
%TO.N,Net-(J1-Pad11)*%
X134317740Y-80213200D03*
%TO.P,J2,10*%
%TO.N,Net-(J1-Pad10)*%
X134317740Y-82753200D03*
%TO.P,J2,9*%
%TO.N,Net-(J1-Pad9)*%
X134317740Y-85293200D03*
%TO.P,J2,8*%
%TO.N,Net-(J1-Pad8)*%
X134317740Y-87833200D03*
%TO.P,J2,7*%
%TO.N,Net-(J1-Pad7)*%
X134317740Y-90373200D03*
%TO.P,J2,6*%
%TO.N,Net-(J1-Pad6)*%
X134317740Y-92913200D03*
%TO.P,J2,5*%
%TO.N,Net-(J1-Pad5)*%
X134317740Y-95453200D03*
%TO.P,J2,4*%
%TO.N,Net-(J1-Pad4)*%
X134317740Y-97993200D03*
%TO.P,J2,3*%
%TO.N,Net-(J1-Pad3)*%
X134317740Y-100533200D03*
%TO.P,J2,2*%
%TO.N,Net-(J1-Pad2)*%
X134317740Y-103073200D03*
D12*
%TO.P,J2,1*%
%TO.N,Net-(J1-Pad1)*%
X134317740Y-105613200D03*
%TD*%
D13*
%TO.N,GND*%
X147853400Y-113893600D03*
X133527800Y-113792000D03*
X140690600Y-80162400D03*
%TD*%
D14*
%TO.N,GND*%
X133712854Y-79081537D02*
X133503700Y-79221289D01*
X133325829Y-79399160D01*
X133186077Y-79608314D01*
X133089814Y-79840713D01*
X133040740Y-80087426D01*
X133040740Y-80338974D01*
X133089814Y-80585687D01*
X133186077Y-80818086D01*
X133325829Y-81027240D01*
X133503700Y-81205111D01*
X133712854Y-81344863D01*
X133945253Y-81441126D01*
X134156774Y-81483200D01*
X133945253Y-81525274D01*
X133712854Y-81621537D01*
X133503700Y-81761289D01*
X133325829Y-81939160D01*
X133186077Y-82148314D01*
X133089814Y-82380713D01*
X133040740Y-82627426D01*
X133040740Y-82878974D01*
X133089814Y-83125687D01*
X133186077Y-83358086D01*
X133325829Y-83567240D01*
X133503700Y-83745111D01*
X133712854Y-83884863D01*
X133945253Y-83981126D01*
X134156774Y-84023200D01*
X133945253Y-84065274D01*
X133712854Y-84161537D01*
X133503700Y-84301289D01*
X133325829Y-84479160D01*
X133186077Y-84688314D01*
X133089814Y-84920713D01*
X133040740Y-85167426D01*
X133040740Y-85418974D01*
X133089814Y-85665687D01*
X133186077Y-85898086D01*
X133325829Y-86107240D01*
X133503700Y-86285111D01*
X133712854Y-86424863D01*
X133945253Y-86521126D01*
X134156774Y-86563200D01*
X133945253Y-86605274D01*
X133712854Y-86701537D01*
X133503700Y-86841289D01*
X133325829Y-87019160D01*
X133186077Y-87228314D01*
X133089814Y-87460713D01*
X133040740Y-87707426D01*
X133040740Y-87958974D01*
X133089814Y-88205687D01*
X133186077Y-88438086D01*
X133325829Y-88647240D01*
X133503700Y-88825111D01*
X133712854Y-88964863D01*
X133945253Y-89061126D01*
X134156774Y-89103200D01*
X133945253Y-89145274D01*
X133712854Y-89241537D01*
X133503700Y-89381289D01*
X133325829Y-89559160D01*
X133186077Y-89768314D01*
X133089814Y-90000713D01*
X133040740Y-90247426D01*
X133040740Y-90498974D01*
X133089814Y-90745687D01*
X133186077Y-90978086D01*
X133325829Y-91187240D01*
X133503700Y-91365111D01*
X133712854Y-91504863D01*
X133945253Y-91601126D01*
X134156774Y-91643200D01*
X133945253Y-91685274D01*
X133712854Y-91781537D01*
X133503700Y-91921289D01*
X133325829Y-92099160D01*
X133186077Y-92308314D01*
X133089814Y-92540713D01*
X133040740Y-92787426D01*
X133040740Y-93038974D01*
X133089814Y-93285687D01*
X133186077Y-93518086D01*
X133325829Y-93727240D01*
X133503700Y-93905111D01*
X133712854Y-94044863D01*
X133945253Y-94141126D01*
X134156774Y-94183200D01*
X133945253Y-94225274D01*
X133712854Y-94321537D01*
X133503700Y-94461289D01*
X133325829Y-94639160D01*
X133186077Y-94848314D01*
X133089814Y-95080713D01*
X133040740Y-95327426D01*
X133040740Y-95578974D01*
X133089814Y-95825687D01*
X133186077Y-96058086D01*
X133325829Y-96267240D01*
X133503700Y-96445111D01*
X133712854Y-96584863D01*
X133945253Y-96681126D01*
X134156774Y-96723200D01*
X133945253Y-96765274D01*
X133712854Y-96861537D01*
X133503700Y-97001289D01*
X133325829Y-97179160D01*
X133186077Y-97388314D01*
X133089814Y-97620713D01*
X133040740Y-97867426D01*
X133040740Y-98118974D01*
X133089814Y-98365687D01*
X133186077Y-98598086D01*
X133325829Y-98807240D01*
X133503700Y-98985111D01*
X133712854Y-99124863D01*
X133945253Y-99221126D01*
X134156774Y-99263200D01*
X133945253Y-99305274D01*
X133712854Y-99401537D01*
X133503700Y-99541289D01*
X133325829Y-99719160D01*
X133186077Y-99928314D01*
X133089814Y-100160713D01*
X133040740Y-100407426D01*
X133040740Y-100658974D01*
X133089814Y-100905687D01*
X133186077Y-101138086D01*
X133325829Y-101347240D01*
X133503700Y-101525111D01*
X133712854Y-101664863D01*
X133945253Y-101761126D01*
X134156774Y-101803200D01*
X133945253Y-101845274D01*
X133712854Y-101941537D01*
X133503700Y-102081289D01*
X133325829Y-102259160D01*
X133186077Y-102468314D01*
X133089814Y-102700713D01*
X133040740Y-102947426D01*
X133040740Y-103198974D01*
X133089814Y-103445687D01*
X133186077Y-103678086D01*
X133325829Y-103887240D01*
X133503700Y-104065111D01*
X133712854Y-104204863D01*
X133945253Y-104301126D01*
X134111196Y-104334134D01*
X133467740Y-104334134D01*
X133384033Y-104342378D01*
X133303544Y-104366795D01*
X133229364Y-104406445D01*
X133164345Y-104459805D01*
X133110985Y-104524824D01*
X133071335Y-104599004D01*
X133046918Y-104679493D01*
X133038674Y-104763200D01*
X133038674Y-106463200D01*
X133046918Y-106546907D01*
X133071335Y-106627396D01*
X133110985Y-106701576D01*
X133164345Y-106766595D01*
X133229364Y-106819955D01*
X133303544Y-106859605D01*
X133384033Y-106884022D01*
X133467740Y-106892266D01*
X135167740Y-106892266D01*
X135251447Y-106884022D01*
X135331936Y-106859605D01*
X135406116Y-106819955D01*
X135471135Y-106766595D01*
X135524495Y-106701576D01*
X135564145Y-106627396D01*
X135588562Y-106546907D01*
X135596806Y-106463200D01*
X135596806Y-104763200D01*
X135588562Y-104679493D01*
X135564145Y-104599004D01*
X135524495Y-104524824D01*
X135471135Y-104459805D01*
X135406116Y-104406445D01*
X135331936Y-104366795D01*
X135251447Y-104342378D01*
X135167740Y-104334134D01*
X134524284Y-104334134D01*
X134690227Y-104301126D01*
X134922626Y-104204863D01*
X135131780Y-104065111D01*
X135309651Y-103887240D01*
X135449403Y-103678086D01*
X135545666Y-103445687D01*
X135594740Y-103198974D01*
X135594740Y-102947426D01*
X135545666Y-102700713D01*
X135449403Y-102468314D01*
X135309651Y-102259160D01*
X135131780Y-102081289D01*
X134922626Y-101941537D01*
X134690227Y-101845274D01*
X134478706Y-101803200D01*
X134690227Y-101761126D01*
X134922626Y-101664863D01*
X135131780Y-101525111D01*
X135309651Y-101347240D01*
X135449403Y-101138086D01*
X135545666Y-100905687D01*
X135594740Y-100658974D01*
X135594740Y-100407426D01*
X135545666Y-100160713D01*
X135449403Y-99928314D01*
X135309651Y-99719160D01*
X135131780Y-99541289D01*
X134922626Y-99401537D01*
X134690227Y-99305274D01*
X134478706Y-99263200D01*
X134690227Y-99221126D01*
X134922626Y-99124863D01*
X135131780Y-98985111D01*
X135309651Y-98807240D01*
X135449403Y-98598086D01*
X135545666Y-98365687D01*
X135594740Y-98118974D01*
X135594740Y-97867426D01*
X135545666Y-97620713D01*
X135449403Y-97388314D01*
X135309651Y-97179160D01*
X135131780Y-97001289D01*
X134922626Y-96861537D01*
X134690227Y-96765274D01*
X134478706Y-96723200D01*
X134690227Y-96681126D01*
X134922626Y-96584863D01*
X135131780Y-96445111D01*
X135309651Y-96267240D01*
X135449403Y-96058086D01*
X135545666Y-95825687D01*
X135594740Y-95578974D01*
X135594740Y-95327426D01*
X135545666Y-95080713D01*
X135449403Y-94848314D01*
X135309651Y-94639160D01*
X135131780Y-94461289D01*
X134922626Y-94321537D01*
X134690227Y-94225274D01*
X134478706Y-94183200D01*
X134690227Y-94141126D01*
X134922626Y-94044863D01*
X135131780Y-93905111D01*
X135309651Y-93727240D01*
X135449403Y-93518086D01*
X135545666Y-93285687D01*
X135594740Y-93038974D01*
X135594740Y-92787426D01*
X135545666Y-92540713D01*
X135449403Y-92308314D01*
X135309651Y-92099160D01*
X135131780Y-91921289D01*
X134922626Y-91781537D01*
X134690227Y-91685274D01*
X134478706Y-91643200D01*
X134690227Y-91601126D01*
X134922626Y-91504863D01*
X135131780Y-91365111D01*
X135309651Y-91187240D01*
X135449403Y-90978086D01*
X135545666Y-90745687D01*
X135594740Y-90498974D01*
X135594740Y-90247426D01*
X135545666Y-90000713D01*
X135449403Y-89768314D01*
X135309651Y-89559160D01*
X135131780Y-89381289D01*
X134922626Y-89241537D01*
X134690227Y-89145274D01*
X134478706Y-89103200D01*
X134690227Y-89061126D01*
X134922626Y-88964863D01*
X135131780Y-88825111D01*
X135309651Y-88647240D01*
X135449403Y-88438086D01*
X135545666Y-88205687D01*
X135594740Y-87958974D01*
X135594740Y-87707426D01*
X135545666Y-87460713D01*
X135449403Y-87228314D01*
X135309651Y-87019160D01*
X135131780Y-86841289D01*
X134922626Y-86701537D01*
X134690227Y-86605274D01*
X134478706Y-86563200D01*
X134690227Y-86521126D01*
X134922626Y-86424863D01*
X135131780Y-86285111D01*
X135309651Y-86107240D01*
X135449403Y-85898086D01*
X135545666Y-85665687D01*
X135594740Y-85418974D01*
X135594740Y-85167426D01*
X135545666Y-84920713D01*
X135449403Y-84688314D01*
X135309651Y-84479160D01*
X135131780Y-84301289D01*
X134922626Y-84161537D01*
X134690227Y-84065274D01*
X134478706Y-84023200D01*
X134690227Y-83981126D01*
X134922626Y-83884863D01*
X135131780Y-83745111D01*
X135309651Y-83567240D01*
X135449403Y-83358086D01*
X135545666Y-83125687D01*
X135594740Y-82878974D01*
X135594740Y-82627426D01*
X135545666Y-82380713D01*
X135449403Y-82148314D01*
X135309651Y-81939160D01*
X135131780Y-81761289D01*
X134922626Y-81621537D01*
X134690227Y-81525274D01*
X134478706Y-81483200D01*
X134690227Y-81441126D01*
X134922626Y-81344863D01*
X135131780Y-81205111D01*
X135309651Y-81027240D01*
X135449403Y-80818086D01*
X135545666Y-80585687D01*
X135594740Y-80338974D01*
X135594740Y-80087426D01*
X135545666Y-79840713D01*
X135449403Y-79608314D01*
X135309651Y-79399160D01*
X135131780Y-79221289D01*
X134922626Y-79081537D01*
X134698740Y-78988800D01*
X146636740Y-78988800D01*
X146412854Y-79081537D01*
X146203700Y-79221289D01*
X146025829Y-79399160D01*
X145886077Y-79608314D01*
X145789814Y-79840713D01*
X145740740Y-80087426D01*
X145740740Y-80338974D01*
X145789814Y-80585687D01*
X145886077Y-80818086D01*
X146025829Y-81027240D01*
X146203700Y-81205111D01*
X146412854Y-81344863D01*
X146645253Y-81441126D01*
X146856774Y-81483200D01*
X146645253Y-81525274D01*
X146412854Y-81621537D01*
X146203700Y-81761289D01*
X146025829Y-81939160D01*
X145886077Y-82148314D01*
X145789814Y-82380713D01*
X145740740Y-82627426D01*
X145740740Y-82878974D01*
X145789814Y-83125687D01*
X145886077Y-83358086D01*
X146025829Y-83567240D01*
X146203700Y-83745111D01*
X146412854Y-83884863D01*
X146645253Y-83981126D01*
X146856774Y-84023200D01*
X146645253Y-84065274D01*
X146412854Y-84161537D01*
X146203700Y-84301289D01*
X146025829Y-84479160D01*
X145886077Y-84688314D01*
X145789814Y-84920713D01*
X145740740Y-85167426D01*
X145740740Y-85418974D01*
X145789814Y-85665687D01*
X145886077Y-85898086D01*
X146025829Y-86107240D01*
X146203700Y-86285111D01*
X146412854Y-86424863D01*
X146645253Y-86521126D01*
X146856774Y-86563200D01*
X146645253Y-86605274D01*
X146412854Y-86701537D01*
X146203700Y-86841289D01*
X146025829Y-87019160D01*
X145886077Y-87228314D01*
X145789814Y-87460713D01*
X145740740Y-87707426D01*
X145740740Y-87958974D01*
X145789814Y-88205687D01*
X145886077Y-88438086D01*
X146025829Y-88647240D01*
X146203700Y-88825111D01*
X146412854Y-88964863D01*
X146645253Y-89061126D01*
X146856774Y-89103200D01*
X146645253Y-89145274D01*
X146412854Y-89241537D01*
X146203700Y-89381289D01*
X146025829Y-89559160D01*
X145886077Y-89768314D01*
X145789814Y-90000713D01*
X145740740Y-90247426D01*
X145740740Y-90498974D01*
X145789814Y-90745687D01*
X145886077Y-90978086D01*
X146025829Y-91187240D01*
X146203700Y-91365111D01*
X146412854Y-91504863D01*
X146645253Y-91601126D01*
X146856774Y-91643200D01*
X146645253Y-91685274D01*
X146412854Y-91781537D01*
X146203700Y-91921289D01*
X146025829Y-92099160D01*
X145886077Y-92308314D01*
X145789814Y-92540713D01*
X145740740Y-92787426D01*
X145740740Y-93038974D01*
X145789814Y-93285687D01*
X145886077Y-93518086D01*
X146025829Y-93727240D01*
X146203700Y-93905111D01*
X146412854Y-94044863D01*
X146645253Y-94141126D01*
X146856774Y-94183200D01*
X146645253Y-94225274D01*
X146412854Y-94321537D01*
X146203700Y-94461289D01*
X146025829Y-94639160D01*
X145886077Y-94848314D01*
X145789814Y-95080713D01*
X145740740Y-95327426D01*
X145740740Y-95578974D01*
X145789814Y-95825687D01*
X145886077Y-96058086D01*
X146025829Y-96267240D01*
X146203700Y-96445111D01*
X146412854Y-96584863D01*
X146645253Y-96681126D01*
X146856774Y-96723200D01*
X146645253Y-96765274D01*
X146412854Y-96861537D01*
X146203700Y-97001289D01*
X146025829Y-97179160D01*
X145886077Y-97388314D01*
X145789814Y-97620713D01*
X145740740Y-97867426D01*
X145740740Y-98118974D01*
X145789814Y-98365687D01*
X145886077Y-98598086D01*
X146025829Y-98807240D01*
X146203700Y-98985111D01*
X146412854Y-99124863D01*
X146645253Y-99221126D01*
X146856774Y-99263200D01*
X146645253Y-99305274D01*
X146412854Y-99401537D01*
X146203700Y-99541289D01*
X146025829Y-99719160D01*
X145886077Y-99928314D01*
X145789814Y-100160713D01*
X145740740Y-100407426D01*
X145740740Y-100658974D01*
X145789814Y-100905687D01*
X145886077Y-101138086D01*
X146025829Y-101347240D01*
X146203700Y-101525111D01*
X146412854Y-101664863D01*
X146645253Y-101761126D01*
X146856774Y-101803200D01*
X146645253Y-101845274D01*
X146412854Y-101941537D01*
X146203700Y-102081289D01*
X146025829Y-102259160D01*
X145886077Y-102468314D01*
X145789814Y-102700713D01*
X145740740Y-102947426D01*
X145740740Y-103198974D01*
X145789814Y-103445687D01*
X145886077Y-103678086D01*
X146025829Y-103887240D01*
X146203700Y-104065111D01*
X146412854Y-104204863D01*
X146645253Y-104301126D01*
X146856774Y-104343200D01*
X146645253Y-104385274D01*
X146412854Y-104481537D01*
X146203700Y-104621289D01*
X146025829Y-104799160D01*
X145886077Y-105008314D01*
X145789814Y-105240713D01*
X145740740Y-105487426D01*
X145740740Y-105738974D01*
X145789814Y-105985687D01*
X145886077Y-106218086D01*
X146025829Y-106427240D01*
X146203700Y-106605111D01*
X146412854Y-106744863D01*
X146645253Y-106841126D01*
X146891966Y-106890200D01*
X147143514Y-106890200D01*
X147390227Y-106841126D01*
X147622626Y-106744863D01*
X147831780Y-106605111D01*
X148009651Y-106427240D01*
X148149403Y-106218086D01*
X148245666Y-105985687D01*
X148294740Y-105738974D01*
X148294740Y-105487426D01*
X148245666Y-105240713D01*
X148149403Y-105008314D01*
X148009651Y-104799160D01*
X147831780Y-104621289D01*
X147622626Y-104481537D01*
X147390227Y-104385274D01*
X147178706Y-104343200D01*
X147390227Y-104301126D01*
X147622626Y-104204863D01*
X147831780Y-104065111D01*
X148009651Y-103887240D01*
X148149403Y-103678086D01*
X148245666Y-103445687D01*
X148294740Y-103198974D01*
X148294740Y-102947426D01*
X148245666Y-102700713D01*
X148149403Y-102468314D01*
X148009651Y-102259160D01*
X147831780Y-102081289D01*
X147622626Y-101941537D01*
X147390227Y-101845274D01*
X147178706Y-101803200D01*
X147390227Y-101761126D01*
X147622626Y-101664863D01*
X147831780Y-101525111D01*
X148009651Y-101347240D01*
X148149403Y-101138086D01*
X148245666Y-100905687D01*
X148294740Y-100658974D01*
X148294740Y-100407426D01*
X148245666Y-100160713D01*
X148149403Y-99928314D01*
X148009651Y-99719160D01*
X147831780Y-99541289D01*
X147622626Y-99401537D01*
X147390227Y-99305274D01*
X147178706Y-99263200D01*
X147390227Y-99221126D01*
X147622626Y-99124863D01*
X147831780Y-98985111D01*
X148009651Y-98807240D01*
X148149403Y-98598086D01*
X148245666Y-98365687D01*
X148294740Y-98118974D01*
X148294740Y-97867426D01*
X148245666Y-97620713D01*
X148149403Y-97388314D01*
X148009651Y-97179160D01*
X147831780Y-97001289D01*
X147622626Y-96861537D01*
X147390227Y-96765274D01*
X147178706Y-96723200D01*
X147390227Y-96681126D01*
X147622626Y-96584863D01*
X147831780Y-96445111D01*
X148009651Y-96267240D01*
X148149403Y-96058086D01*
X148245666Y-95825687D01*
X148294740Y-95578974D01*
X148294740Y-95327426D01*
X148245666Y-95080713D01*
X148149403Y-94848314D01*
X148009651Y-94639160D01*
X147831780Y-94461289D01*
X147622626Y-94321537D01*
X147390227Y-94225274D01*
X147178706Y-94183200D01*
X147390227Y-94141126D01*
X147622626Y-94044863D01*
X147831780Y-93905111D01*
X148009651Y-93727240D01*
X148149403Y-93518086D01*
X148245666Y-93285687D01*
X148294740Y-93038974D01*
X148294740Y-92787426D01*
X148245666Y-92540713D01*
X148149403Y-92308314D01*
X148009651Y-92099160D01*
X147831780Y-91921289D01*
X147622626Y-91781537D01*
X147390227Y-91685274D01*
X147178706Y-91643200D01*
X147390227Y-91601126D01*
X147622626Y-91504863D01*
X147831780Y-91365111D01*
X148009651Y-91187240D01*
X148149403Y-90978086D01*
X148245666Y-90745687D01*
X148294740Y-90498974D01*
X148294740Y-90247426D01*
X148245666Y-90000713D01*
X148149403Y-89768314D01*
X148009651Y-89559160D01*
X147831780Y-89381289D01*
X147622626Y-89241537D01*
X147390227Y-89145274D01*
X147178706Y-89103200D01*
X147390227Y-89061126D01*
X147622626Y-88964863D01*
X147831780Y-88825111D01*
X148009651Y-88647240D01*
X148149403Y-88438086D01*
X148245666Y-88205687D01*
X148294740Y-87958974D01*
X148294740Y-87707426D01*
X148245666Y-87460713D01*
X148149403Y-87228314D01*
X148009651Y-87019160D01*
X147831780Y-86841289D01*
X147622626Y-86701537D01*
X147390227Y-86605274D01*
X147178706Y-86563200D01*
X147390227Y-86521126D01*
X147622626Y-86424863D01*
X147831780Y-86285111D01*
X148009651Y-86107240D01*
X148149403Y-85898086D01*
X148245666Y-85665687D01*
X148294740Y-85418974D01*
X148294740Y-85167426D01*
X148245666Y-84920713D01*
X148149403Y-84688314D01*
X148009651Y-84479160D01*
X147831780Y-84301289D01*
X147622626Y-84161537D01*
X147390227Y-84065274D01*
X147178706Y-84023200D01*
X147390227Y-83981126D01*
X147622626Y-83884863D01*
X147831780Y-83745111D01*
X148009651Y-83567240D01*
X148149403Y-83358086D01*
X148245666Y-83125687D01*
X148294740Y-82878974D01*
X148294740Y-82627426D01*
X148245666Y-82380713D01*
X148149403Y-82148314D01*
X148009651Y-81939160D01*
X147831780Y-81761289D01*
X147622626Y-81621537D01*
X147390227Y-81525274D01*
X147178706Y-81483200D01*
X147390227Y-81441126D01*
X147622626Y-81344863D01*
X147831780Y-81205111D01*
X148009651Y-81027240D01*
X148149403Y-80818086D01*
X148245666Y-80585687D01*
X148294740Y-80338974D01*
X148294740Y-80087426D01*
X148245666Y-79840713D01*
X148149403Y-79608314D01*
X148009651Y-79399160D01*
X147831780Y-79221289D01*
X147622626Y-79081537D01*
X147398740Y-78988800D01*
X148798401Y-78988800D01*
X148798400Y-114406800D01*
X132582800Y-114406800D01*
X132582800Y-78988800D01*
X133936740Y-78988800D01*
X133712854Y-79081537D01*
%TA.AperFunction,Conductor*%
D15*
G36*
X133712854Y-79081537D02*
G01*
X133503700Y-79221289D01*
X133325829Y-79399160D01*
X133186077Y-79608314D01*
X133089814Y-79840713D01*
X133040740Y-80087426D01*
X133040740Y-80338974D01*
X133089814Y-80585687D01*
X133186077Y-80818086D01*
X133325829Y-81027240D01*
X133503700Y-81205111D01*
X133712854Y-81344863D01*
X133945253Y-81441126D01*
X134156774Y-81483200D01*
X133945253Y-81525274D01*
X133712854Y-81621537D01*
X133503700Y-81761289D01*
X133325829Y-81939160D01*
X133186077Y-82148314D01*
X133089814Y-82380713D01*
X133040740Y-82627426D01*
X133040740Y-82878974D01*
X133089814Y-83125687D01*
X133186077Y-83358086D01*
X133325829Y-83567240D01*
X133503700Y-83745111D01*
X133712854Y-83884863D01*
X133945253Y-83981126D01*
X134156774Y-84023200D01*
X133945253Y-84065274D01*
X133712854Y-84161537D01*
X133503700Y-84301289D01*
X133325829Y-84479160D01*
X133186077Y-84688314D01*
X133089814Y-84920713D01*
X133040740Y-85167426D01*
X133040740Y-85418974D01*
X133089814Y-85665687D01*
X133186077Y-85898086D01*
X133325829Y-86107240D01*
X133503700Y-86285111D01*
X133712854Y-86424863D01*
X133945253Y-86521126D01*
X134156774Y-86563200D01*
X133945253Y-86605274D01*
X133712854Y-86701537D01*
X133503700Y-86841289D01*
X133325829Y-87019160D01*
X133186077Y-87228314D01*
X133089814Y-87460713D01*
X133040740Y-87707426D01*
X133040740Y-87958974D01*
X133089814Y-88205687D01*
X133186077Y-88438086D01*
X133325829Y-88647240D01*
X133503700Y-88825111D01*
X133712854Y-88964863D01*
X133945253Y-89061126D01*
X134156774Y-89103200D01*
X133945253Y-89145274D01*
X133712854Y-89241537D01*
X133503700Y-89381289D01*
X133325829Y-89559160D01*
X133186077Y-89768314D01*
X133089814Y-90000713D01*
X133040740Y-90247426D01*
X133040740Y-90498974D01*
X133089814Y-90745687D01*
X133186077Y-90978086D01*
X133325829Y-91187240D01*
X133503700Y-91365111D01*
X133712854Y-91504863D01*
X133945253Y-91601126D01*
X134156774Y-91643200D01*
X133945253Y-91685274D01*
X133712854Y-91781537D01*
X133503700Y-91921289D01*
X133325829Y-92099160D01*
X133186077Y-92308314D01*
X133089814Y-92540713D01*
X133040740Y-92787426D01*
X133040740Y-93038974D01*
X133089814Y-93285687D01*
X133186077Y-93518086D01*
X133325829Y-93727240D01*
X133503700Y-93905111D01*
X133712854Y-94044863D01*
X133945253Y-94141126D01*
X134156774Y-94183200D01*
X133945253Y-94225274D01*
X133712854Y-94321537D01*
X133503700Y-94461289D01*
X133325829Y-94639160D01*
X133186077Y-94848314D01*
X133089814Y-95080713D01*
X133040740Y-95327426D01*
X133040740Y-95578974D01*
X133089814Y-95825687D01*
X133186077Y-96058086D01*
X133325829Y-96267240D01*
X133503700Y-96445111D01*
X133712854Y-96584863D01*
X133945253Y-96681126D01*
X134156774Y-96723200D01*
X133945253Y-96765274D01*
X133712854Y-96861537D01*
X133503700Y-97001289D01*
X133325829Y-97179160D01*
X133186077Y-97388314D01*
X133089814Y-97620713D01*
X133040740Y-97867426D01*
X133040740Y-98118974D01*
X133089814Y-98365687D01*
X133186077Y-98598086D01*
X133325829Y-98807240D01*
X133503700Y-98985111D01*
X133712854Y-99124863D01*
X133945253Y-99221126D01*
X134156774Y-99263200D01*
X133945253Y-99305274D01*
X133712854Y-99401537D01*
X133503700Y-99541289D01*
X133325829Y-99719160D01*
X133186077Y-99928314D01*
X133089814Y-100160713D01*
X133040740Y-100407426D01*
X133040740Y-100658974D01*
X133089814Y-100905687D01*
X133186077Y-101138086D01*
X133325829Y-101347240D01*
X133503700Y-101525111D01*
X133712854Y-101664863D01*
X133945253Y-101761126D01*
X134156774Y-101803200D01*
X133945253Y-101845274D01*
X133712854Y-101941537D01*
X133503700Y-102081289D01*
X133325829Y-102259160D01*
X133186077Y-102468314D01*
X133089814Y-102700713D01*
X133040740Y-102947426D01*
X133040740Y-103198974D01*
X133089814Y-103445687D01*
X133186077Y-103678086D01*
X133325829Y-103887240D01*
X133503700Y-104065111D01*
X133712854Y-104204863D01*
X133945253Y-104301126D01*
X134111196Y-104334134D01*
X133467740Y-104334134D01*
X133384033Y-104342378D01*
X133303544Y-104366795D01*
X133229364Y-104406445D01*
X133164345Y-104459805D01*
X133110985Y-104524824D01*
X133071335Y-104599004D01*
X133046918Y-104679493D01*
X133038674Y-104763200D01*
X133038674Y-106463200D01*
X133046918Y-106546907D01*
X133071335Y-106627396D01*
X133110985Y-106701576D01*
X133164345Y-106766595D01*
X133229364Y-106819955D01*
X133303544Y-106859605D01*
X133384033Y-106884022D01*
X133467740Y-106892266D01*
X135167740Y-106892266D01*
X135251447Y-106884022D01*
X135331936Y-106859605D01*
X135406116Y-106819955D01*
X135471135Y-106766595D01*
X135524495Y-106701576D01*
X135564145Y-106627396D01*
X135588562Y-106546907D01*
X135596806Y-106463200D01*
X135596806Y-104763200D01*
X135588562Y-104679493D01*
X135564145Y-104599004D01*
X135524495Y-104524824D01*
X135471135Y-104459805D01*
X135406116Y-104406445D01*
X135331936Y-104366795D01*
X135251447Y-104342378D01*
X135167740Y-104334134D01*
X134524284Y-104334134D01*
X134690227Y-104301126D01*
X134922626Y-104204863D01*
X135131780Y-104065111D01*
X135309651Y-103887240D01*
X135449403Y-103678086D01*
X135545666Y-103445687D01*
X135594740Y-103198974D01*
X135594740Y-102947426D01*
X135545666Y-102700713D01*
X135449403Y-102468314D01*
X135309651Y-102259160D01*
X135131780Y-102081289D01*
X134922626Y-101941537D01*
X134690227Y-101845274D01*
X134478706Y-101803200D01*
X134690227Y-101761126D01*
X134922626Y-101664863D01*
X135131780Y-101525111D01*
X135309651Y-101347240D01*
X135449403Y-101138086D01*
X135545666Y-100905687D01*
X135594740Y-100658974D01*
X135594740Y-100407426D01*
X135545666Y-100160713D01*
X135449403Y-99928314D01*
X135309651Y-99719160D01*
X135131780Y-99541289D01*
X134922626Y-99401537D01*
X134690227Y-99305274D01*
X134478706Y-99263200D01*
X134690227Y-99221126D01*
X134922626Y-99124863D01*
X135131780Y-98985111D01*
X135309651Y-98807240D01*
X135449403Y-98598086D01*
X135545666Y-98365687D01*
X135594740Y-98118974D01*
X135594740Y-97867426D01*
X135545666Y-97620713D01*
X135449403Y-97388314D01*
X135309651Y-97179160D01*
X135131780Y-97001289D01*
X134922626Y-96861537D01*
X134690227Y-96765274D01*
X134478706Y-96723200D01*
X134690227Y-96681126D01*
X134922626Y-96584863D01*
X135131780Y-96445111D01*
X135309651Y-96267240D01*
X135449403Y-96058086D01*
X135545666Y-95825687D01*
X135594740Y-95578974D01*
X135594740Y-95327426D01*
X135545666Y-95080713D01*
X135449403Y-94848314D01*
X135309651Y-94639160D01*
X135131780Y-94461289D01*
X134922626Y-94321537D01*
X134690227Y-94225274D01*
X134478706Y-94183200D01*
X134690227Y-94141126D01*
X134922626Y-94044863D01*
X135131780Y-93905111D01*
X135309651Y-93727240D01*
X135449403Y-93518086D01*
X135545666Y-93285687D01*
X135594740Y-93038974D01*
X135594740Y-92787426D01*
X135545666Y-92540713D01*
X135449403Y-92308314D01*
X135309651Y-92099160D01*
X135131780Y-91921289D01*
X134922626Y-91781537D01*
X134690227Y-91685274D01*
X134478706Y-91643200D01*
X134690227Y-91601126D01*
X134922626Y-91504863D01*
X135131780Y-91365111D01*
X135309651Y-91187240D01*
X135449403Y-90978086D01*
X135545666Y-90745687D01*
X135594740Y-90498974D01*
X135594740Y-90247426D01*
X135545666Y-90000713D01*
X135449403Y-89768314D01*
X135309651Y-89559160D01*
X135131780Y-89381289D01*
X134922626Y-89241537D01*
X134690227Y-89145274D01*
X134478706Y-89103200D01*
X134690227Y-89061126D01*
X134922626Y-88964863D01*
X135131780Y-88825111D01*
X135309651Y-88647240D01*
X135449403Y-88438086D01*
X135545666Y-88205687D01*
X135594740Y-87958974D01*
X135594740Y-87707426D01*
X135545666Y-87460713D01*
X135449403Y-87228314D01*
X135309651Y-87019160D01*
X135131780Y-86841289D01*
X134922626Y-86701537D01*
X134690227Y-86605274D01*
X134478706Y-86563200D01*
X134690227Y-86521126D01*
X134922626Y-86424863D01*
X135131780Y-86285111D01*
X135309651Y-86107240D01*
X135449403Y-85898086D01*
X135545666Y-85665687D01*
X135594740Y-85418974D01*
X135594740Y-85167426D01*
X135545666Y-84920713D01*
X135449403Y-84688314D01*
X135309651Y-84479160D01*
X135131780Y-84301289D01*
X134922626Y-84161537D01*
X134690227Y-84065274D01*
X134478706Y-84023200D01*
X134690227Y-83981126D01*
X134922626Y-83884863D01*
X135131780Y-83745111D01*
X135309651Y-83567240D01*
X135449403Y-83358086D01*
X135545666Y-83125687D01*
X135594740Y-82878974D01*
X135594740Y-82627426D01*
X135545666Y-82380713D01*
X135449403Y-82148314D01*
X135309651Y-81939160D01*
X135131780Y-81761289D01*
X134922626Y-81621537D01*
X134690227Y-81525274D01*
X134478706Y-81483200D01*
X134690227Y-81441126D01*
X134922626Y-81344863D01*
X135131780Y-81205111D01*
X135309651Y-81027240D01*
X135449403Y-80818086D01*
X135545666Y-80585687D01*
X135594740Y-80338974D01*
X135594740Y-80087426D01*
X135545666Y-79840713D01*
X135449403Y-79608314D01*
X135309651Y-79399160D01*
X135131780Y-79221289D01*
X134922626Y-79081537D01*
X134698740Y-78988800D01*
X146636740Y-78988800D01*
X146412854Y-79081537D01*
X146203700Y-79221289D01*
X146025829Y-79399160D01*
X145886077Y-79608314D01*
X145789814Y-79840713D01*
X145740740Y-80087426D01*
X145740740Y-80338974D01*
X145789814Y-80585687D01*
X145886077Y-80818086D01*
X146025829Y-81027240D01*
X146203700Y-81205111D01*
X146412854Y-81344863D01*
X146645253Y-81441126D01*
X146856774Y-81483200D01*
X146645253Y-81525274D01*
X146412854Y-81621537D01*
X146203700Y-81761289D01*
X146025829Y-81939160D01*
X145886077Y-82148314D01*
X145789814Y-82380713D01*
X145740740Y-82627426D01*
X145740740Y-82878974D01*
X145789814Y-83125687D01*
X145886077Y-83358086D01*
X146025829Y-83567240D01*
X146203700Y-83745111D01*
X146412854Y-83884863D01*
X146645253Y-83981126D01*
X146856774Y-84023200D01*
X146645253Y-84065274D01*
X146412854Y-84161537D01*
X146203700Y-84301289D01*
X146025829Y-84479160D01*
X145886077Y-84688314D01*
X145789814Y-84920713D01*
X145740740Y-85167426D01*
X145740740Y-85418974D01*
X145789814Y-85665687D01*
X145886077Y-85898086D01*
X146025829Y-86107240D01*
X146203700Y-86285111D01*
X146412854Y-86424863D01*
X146645253Y-86521126D01*
X146856774Y-86563200D01*
X146645253Y-86605274D01*
X146412854Y-86701537D01*
X146203700Y-86841289D01*
X146025829Y-87019160D01*
X145886077Y-87228314D01*
X145789814Y-87460713D01*
X145740740Y-87707426D01*
X145740740Y-87958974D01*
X145789814Y-88205687D01*
X145886077Y-88438086D01*
X146025829Y-88647240D01*
X146203700Y-88825111D01*
X146412854Y-88964863D01*
X146645253Y-89061126D01*
X146856774Y-89103200D01*
X146645253Y-89145274D01*
X146412854Y-89241537D01*
X146203700Y-89381289D01*
X146025829Y-89559160D01*
X145886077Y-89768314D01*
X145789814Y-90000713D01*
X145740740Y-90247426D01*
X145740740Y-90498974D01*
X145789814Y-90745687D01*
X145886077Y-90978086D01*
X146025829Y-91187240D01*
X146203700Y-91365111D01*
X146412854Y-91504863D01*
X146645253Y-91601126D01*
X146856774Y-91643200D01*
X146645253Y-91685274D01*
X146412854Y-91781537D01*
X146203700Y-91921289D01*
X146025829Y-92099160D01*
X145886077Y-92308314D01*
X145789814Y-92540713D01*
X145740740Y-92787426D01*
X145740740Y-93038974D01*
X145789814Y-93285687D01*
X145886077Y-93518086D01*
X146025829Y-93727240D01*
X146203700Y-93905111D01*
X146412854Y-94044863D01*
X146645253Y-94141126D01*
X146856774Y-94183200D01*
X146645253Y-94225274D01*
X146412854Y-94321537D01*
X146203700Y-94461289D01*
X146025829Y-94639160D01*
X145886077Y-94848314D01*
X145789814Y-95080713D01*
X145740740Y-95327426D01*
X145740740Y-95578974D01*
X145789814Y-95825687D01*
X145886077Y-96058086D01*
X146025829Y-96267240D01*
X146203700Y-96445111D01*
X146412854Y-96584863D01*
X146645253Y-96681126D01*
X146856774Y-96723200D01*
X146645253Y-96765274D01*
X146412854Y-96861537D01*
X146203700Y-97001289D01*
X146025829Y-97179160D01*
X145886077Y-97388314D01*
X145789814Y-97620713D01*
X145740740Y-97867426D01*
X145740740Y-98118974D01*
X145789814Y-98365687D01*
X145886077Y-98598086D01*
X146025829Y-98807240D01*
X146203700Y-98985111D01*
X146412854Y-99124863D01*
X146645253Y-99221126D01*
X146856774Y-99263200D01*
X146645253Y-99305274D01*
X146412854Y-99401537D01*
X146203700Y-99541289D01*
X146025829Y-99719160D01*
X145886077Y-99928314D01*
X145789814Y-100160713D01*
X145740740Y-100407426D01*
X145740740Y-100658974D01*
X145789814Y-100905687D01*
X145886077Y-101138086D01*
X146025829Y-101347240D01*
X146203700Y-101525111D01*
X146412854Y-101664863D01*
X146645253Y-101761126D01*
X146856774Y-101803200D01*
X146645253Y-101845274D01*
X146412854Y-101941537D01*
X146203700Y-102081289D01*
X146025829Y-102259160D01*
X145886077Y-102468314D01*
X145789814Y-102700713D01*
X145740740Y-102947426D01*
X145740740Y-103198974D01*
X145789814Y-103445687D01*
X145886077Y-103678086D01*
X146025829Y-103887240D01*
X146203700Y-104065111D01*
X146412854Y-104204863D01*
X146645253Y-104301126D01*
X146856774Y-104343200D01*
X146645253Y-104385274D01*
X146412854Y-104481537D01*
X146203700Y-104621289D01*
X146025829Y-104799160D01*
X145886077Y-105008314D01*
X145789814Y-105240713D01*
X145740740Y-105487426D01*
X145740740Y-105738974D01*
X145789814Y-105985687D01*
X145886077Y-106218086D01*
X146025829Y-106427240D01*
X146203700Y-106605111D01*
X146412854Y-106744863D01*
X146645253Y-106841126D01*
X146891966Y-106890200D01*
X147143514Y-106890200D01*
X147390227Y-106841126D01*
X147622626Y-106744863D01*
X147831780Y-106605111D01*
X148009651Y-106427240D01*
X148149403Y-106218086D01*
X148245666Y-105985687D01*
X148294740Y-105738974D01*
X148294740Y-105487426D01*
X148245666Y-105240713D01*
X148149403Y-105008314D01*
X148009651Y-104799160D01*
X147831780Y-104621289D01*
X147622626Y-104481537D01*
X147390227Y-104385274D01*
X147178706Y-104343200D01*
X147390227Y-104301126D01*
X147622626Y-104204863D01*
X147831780Y-104065111D01*
X148009651Y-103887240D01*
X148149403Y-103678086D01*
X148245666Y-103445687D01*
X148294740Y-103198974D01*
X148294740Y-102947426D01*
X148245666Y-102700713D01*
X148149403Y-102468314D01*
X148009651Y-102259160D01*
X147831780Y-102081289D01*
X147622626Y-101941537D01*
X147390227Y-101845274D01*
X147178706Y-101803200D01*
X147390227Y-101761126D01*
X147622626Y-101664863D01*
X147831780Y-101525111D01*
X148009651Y-101347240D01*
X148149403Y-101138086D01*
X148245666Y-100905687D01*
X148294740Y-100658974D01*
X148294740Y-100407426D01*
X148245666Y-100160713D01*
X148149403Y-99928314D01*
X148009651Y-99719160D01*
X147831780Y-99541289D01*
X147622626Y-99401537D01*
X147390227Y-99305274D01*
X147178706Y-99263200D01*
X147390227Y-99221126D01*
X147622626Y-99124863D01*
X147831780Y-98985111D01*
X148009651Y-98807240D01*
X148149403Y-98598086D01*
X148245666Y-98365687D01*
X148294740Y-98118974D01*
X148294740Y-97867426D01*
X148245666Y-97620713D01*
X148149403Y-97388314D01*
X148009651Y-97179160D01*
X147831780Y-97001289D01*
X147622626Y-96861537D01*
X147390227Y-96765274D01*
X147178706Y-96723200D01*
X147390227Y-96681126D01*
X147622626Y-96584863D01*
X147831780Y-96445111D01*
X148009651Y-96267240D01*
X148149403Y-96058086D01*
X148245666Y-95825687D01*
X148294740Y-95578974D01*
X148294740Y-95327426D01*
X148245666Y-95080713D01*
X148149403Y-94848314D01*
X148009651Y-94639160D01*
X147831780Y-94461289D01*
X147622626Y-94321537D01*
X147390227Y-94225274D01*
X147178706Y-94183200D01*
X147390227Y-94141126D01*
X147622626Y-94044863D01*
X147831780Y-93905111D01*
X148009651Y-93727240D01*
X148149403Y-93518086D01*
X148245666Y-93285687D01*
X148294740Y-93038974D01*
X148294740Y-92787426D01*
X148245666Y-92540713D01*
X148149403Y-92308314D01*
X148009651Y-92099160D01*
X147831780Y-91921289D01*
X147622626Y-91781537D01*
X147390227Y-91685274D01*
X147178706Y-91643200D01*
X147390227Y-91601126D01*
X147622626Y-91504863D01*
X147831780Y-91365111D01*
X148009651Y-91187240D01*
X148149403Y-90978086D01*
X148245666Y-90745687D01*
X148294740Y-90498974D01*
X148294740Y-90247426D01*
X148245666Y-90000713D01*
X148149403Y-89768314D01*
X148009651Y-89559160D01*
X147831780Y-89381289D01*
X147622626Y-89241537D01*
X147390227Y-89145274D01*
X147178706Y-89103200D01*
X147390227Y-89061126D01*
X147622626Y-88964863D01*
X147831780Y-88825111D01*
X148009651Y-88647240D01*
X148149403Y-88438086D01*
X148245666Y-88205687D01*
X148294740Y-87958974D01*
X148294740Y-87707426D01*
X148245666Y-87460713D01*
X148149403Y-87228314D01*
X148009651Y-87019160D01*
X147831780Y-86841289D01*
X147622626Y-86701537D01*
X147390227Y-86605274D01*
X147178706Y-86563200D01*
X147390227Y-86521126D01*
X147622626Y-86424863D01*
X147831780Y-86285111D01*
X148009651Y-86107240D01*
X148149403Y-85898086D01*
X148245666Y-85665687D01*
X148294740Y-85418974D01*
X148294740Y-85167426D01*
X148245666Y-84920713D01*
X148149403Y-84688314D01*
X148009651Y-84479160D01*
X147831780Y-84301289D01*
X147622626Y-84161537D01*
X147390227Y-84065274D01*
X147178706Y-84023200D01*
X147390227Y-83981126D01*
X147622626Y-83884863D01*
X147831780Y-83745111D01*
X148009651Y-83567240D01*
X148149403Y-83358086D01*
X148245666Y-83125687D01*
X148294740Y-82878974D01*
X148294740Y-82627426D01*
X148245666Y-82380713D01*
X148149403Y-82148314D01*
X148009651Y-81939160D01*
X147831780Y-81761289D01*
X147622626Y-81621537D01*
X147390227Y-81525274D01*
X147178706Y-81483200D01*
X147390227Y-81441126D01*
X147622626Y-81344863D01*
X147831780Y-81205111D01*
X148009651Y-81027240D01*
X148149403Y-80818086D01*
X148245666Y-80585687D01*
X148294740Y-80338974D01*
X148294740Y-80087426D01*
X148245666Y-79840713D01*
X148149403Y-79608314D01*
X148009651Y-79399160D01*
X147831780Y-79221289D01*
X147622626Y-79081537D01*
X147398740Y-78988800D01*
X148798401Y-78988800D01*
X148798400Y-114406800D01*
X132582800Y-114406800D01*
X132582800Y-78988800D01*
X133936740Y-78988800D01*
X133712854Y-79081537D01*
G37*
%TD.AperFunction*%
%TD*%
M02*
