%TF.GenerationSoftware,KiCad,Pcbnew,(5.1.7)-1*%
%TF.CreationDate,2021-02-13T22:19:47+01:00*%
%TF.ProjectId,breakout_longlcd,62726561-6b6f-4757-945f-6c6f6e676c63,rev?*%
%TF.SameCoordinates,Original*%
%TF.FileFunction,Soldermask,Top*%
%TF.FilePolarity,Negative*%
%FSLAX46Y46*%
G04 Gerber Fmt 4.6, Leading zero omitted, Abs format (unit mm)*
G04 Created by KiCad (PCBNEW (5.1.7)-1) date 2021-02-13 22:19:47*
%MOMM*%
%LPD*%
G01*
G04 APERTURE LIST*
%ADD10R,1.000000X1.000000*%
%ADD11O,1.700000X1.700000*%
%ADD12C,1.700000*%
%ADD13R,1.700000X1.700000*%
%ADD14R,0.300000X1.300000*%
%ADD15R,1.800000X2.200000*%
G04 APERTURE END LIST*
D10*
%TO.C,REF\u002A\u002A*%
X133121400Y-107696000D03*
%TD*%
%TO.C,REF\u002A\u002A*%
X147980400Y-107696000D03*
%TD*%
D11*
%TO.C,J3*%
X147017740Y-105613200D03*
X147017740Y-103073200D03*
X147017740Y-100533200D03*
X147017740Y-97993200D03*
X147017740Y-95453200D03*
X147017740Y-92913200D03*
X147017740Y-90373200D03*
X147017740Y-87833200D03*
X147017740Y-85293200D03*
X147017740Y-82753200D03*
D12*
X147017740Y-80213200D03*
%TD*%
D11*
%TO.C,J2*%
X134317740Y-80213200D03*
X134317740Y-82753200D03*
X134317740Y-85293200D03*
X134317740Y-87833200D03*
X134317740Y-90373200D03*
X134317740Y-92913200D03*
X134317740Y-95453200D03*
X134317740Y-97993200D03*
X134317740Y-100533200D03*
X134317740Y-103073200D03*
D13*
X134317740Y-105613200D03*
%TD*%
D14*
%TO.C,J1*%
X145915200Y-108132000D03*
X145415200Y-108132000D03*
X144915200Y-108132000D03*
X144415200Y-108132000D03*
X143915200Y-108132000D03*
X143415200Y-108132000D03*
X142915200Y-108132000D03*
X142415200Y-108132000D03*
X141915200Y-108132000D03*
X141415200Y-108132000D03*
X140915200Y-108132000D03*
X140415200Y-108132000D03*
X139915200Y-108132000D03*
X139415200Y-108132000D03*
X138915200Y-108132000D03*
X138415200Y-108132000D03*
X137915200Y-108132000D03*
X137415200Y-108132000D03*
X136915200Y-108132000D03*
X136415200Y-108132000D03*
X135915200Y-108132000D03*
X135415200Y-108132000D03*
D15*
X133515200Y-111382000D03*
X147815200Y-111382000D03*
%TD*%
M02*
