M48
; DRILL file {KiCad (5.1.7)-1} date 02/13/21 22:20:53
; FORMAT={-:-/ absolute / inch / decimal}
; #@! TF.CreationDate,2021-02-13T22:20:53+01:00
; #@! TF.GenerationSoftware,Kicad,Pcbnew,(5.1.7)-1
; #@! TF.FileFunction,Plated,1,2,PTH
FMAT,2
INCH
T1C0.0157
T2C0.0394
%
G90
G05
T1
X5.257Y-4.48
X5.539Y-3.156
X5.821Y-4.484
T2
X5.7881Y-3.158
X5.7881Y-3.258
X5.7881Y-3.358
X5.7881Y-3.458
X5.7881Y-3.558
X5.7881Y-3.658
X5.7881Y-3.758
X5.7881Y-3.858
X5.7881Y-3.958
X5.7881Y-4.058
X5.7881Y-4.158
X5.2881Y-3.158
X5.2881Y-3.258
X5.2881Y-3.358
X5.2881Y-3.458
X5.2881Y-3.558
X5.2881Y-3.658
X5.2881Y-3.758
X5.2881Y-3.858
X5.2881Y-3.958
X5.2881Y-4.058
X5.2881Y-4.158
T0
M30
